# xmcd
#
# Track frame offsets: 
#        150
#        7428
#        27381
#        50667
#        73834
#        80025
#        101031
#        120491
#        125771
#        141161
#        151581
#        162089
#        180494
#        201994
#        208245
#        227183
#        244769
#        263385
#        282569
#
# Disc length: 4064 seconds
#
# Revision: 5
# Processed by: cddbd v1.5.2PL0 Copyright (c) Steve Scherf et al.
# Submitted via: ExactAudioCopy v1.3
#
DISCID=1d0fde13
DTITLE=Janelle Monae - The Electric Lady
DYEAR=2013
DGENRE=R&B
TTITLE0=Suite IV Electric Overture
TTITLE1=Givin' Em What They Love (feat. Prince)
TTITLE2=Q.U.E.E.N. (feat. Erykah Badu)
TTITLE3=Electric Lady (feat. Solange)
TTITLE4=Good Morning Midnight (interlude) (feat. Charlie Darker, Mia N
TTITLE4=unnally and Ninjaback Leroy)
TTITLE5=Primetime (feat. Miguel)
TTITLE6=We Were Rock and Roll
TTITLE7=The Chrome Shoppe (interlude) (feat. Charlie Darker, Roman Gia
TTITLE7=nArthur, George 2.0, Isis Valentino and Azza Gallab)
TTITLE8=Dance Apocalyptic
TTITLE9=Look Into My Eyes
TTITLE10=Suite V Electric Overture
TTITLE11=It's Code
TTITLE12=Ghetto Woman
TTITLE13=Our Favorite Fugitive (interlude) (feat. Charlier Darker, Lac
TTITLE13=ey Duke and Joshua Newbright)
TTITLE14=Victory
TTITLE15=Can't Live Without Your Love
TTITLE16=Sally Ride
TTITLE17=Dorothy Dandridge Eyes (feat. Esperanza Spalding)
TTITLE18=What An Experience
EXTD=YEAR: 2013
EXTT0=
EXTT1=
EXTT2=
EXTT3=
EXTT4=
EXTT5=
EXTT6=
EXTT7=
EXTT8=
EXTT9=
EXTT10=
EXTT11=
EXTT12=
EXTT13=
EXTT14=
EXTT15=
EXTT16=
EXTT17=
EXTT18=
PLAYORDER=
